<svg width="32" height="33" viewBox="0 0 32 33" fill="none" xmlns="http://www.w3.org/2000/svg">
<g id="fi-rr-arrow-small-left">
<path id="Vector" d="M25.3333 15.1666H12L16.3867 10.78C16.5116 10.656 16.6108 10.5086 16.6785 10.3461C16.7462 10.1836 16.7811 10.0093 16.7811 9.83332C16.7811 9.6573 16.7462 9.48303 16.6785 9.32055C16.6108 9.15807 16.5116 9.01061 16.3867 8.88665C16.1368 8.63832 15.7989 8.49893 15.4467 8.49893C15.0944 8.49893 14.7565 8.63832 14.5067 8.88665L8.78667 14.62C8.28588 15.1178 8.00298 15.7939 8 16.5C8.00649 17.2015 8.28913 17.8721 8.78667 18.3666L14.5067 24.1C14.631 24.2234 14.7784 24.3212 14.9405 24.3876C15.1026 24.4541 15.2762 24.488 15.4514 24.4874C15.6266 24.4868 15.7999 24.4516 15.9615 24.384C16.1232 24.3164 16.2699 24.2176 16.3933 24.0933C16.5168 23.969 16.6145 23.8216 16.681 23.6595C16.7475 23.4974 16.7814 23.3238 16.7807 23.1486C16.7801 22.9734 16.745 22.8 16.6774 22.6384C16.6098 22.4768 16.511 22.3301 16.3867 22.2066L12 17.8333H25.3333C25.687 17.8333 26.0261 17.6928 26.2761 17.4428C26.5262 17.1927 26.6667 16.8536 26.6667 16.5C26.6667 16.1464 26.5262 15.8072 26.2761 15.5572C26.0261 15.3071 25.687 15.1666 25.3333 15.1666Z" fill="white"/>
</g>
</svg>
